<?xml version="1.0" encoding="UTF-8" standalone="no"?>
<svg
   width="512"
   height="408"
   version="1.1"
   id="svg33"
   sodipodi:docname="TPAM-logo.svg"
   inkscape:version="1.1 (c68e22c387, 2021-05-23)"
   xmlns:inkscape="http://www.inkscape.org/namespaces/inkscape"
   xmlns:sodipodi="http://sodipodi.sourceforge.net/DTD/sodipodi-0.dtd"
   xmlns="http://www.w3.org/2000/svg"
   xmlns:svg="http://www.w3.org/2000/svg">
  <sodipodi:namedview
     id="namedview35"
     pagecolor="#ffffff"
     bordercolor="#666666"
     borderopacity="1.0"
     inkscape:pageshadow="2"
     inkscape:pageopacity="0.0"
     inkscape:pagecheckerboard="0"
     showgrid="false"
     inkscape:zoom="1.9901961"
     inkscape:cx="256.00493"
     inkscape:cy="203.24631"
     inkscape:window-width="1920"
     inkscape:window-height="1001"
     inkscape:window-x="-9"
     inkscape:window-y="-9"
     inkscape:window-maximized="1"
     inkscape:current-layer="svg33" />
  <defs
     id="defs27">
    <inkscape:perspective
       sodipodi:type="inkscape:persp3d"
       inkscape:vp_x="0 : 204 : 1"
       inkscape:vp_y="0 : 1000 : 0"
       inkscape:vp_z="512 : 204 : 1"
       inkscape:persp3d-origin="256 : 136 : 1"
       id="perspective31499" />
    <linearGradient
       id="bs-logo-a"
       x1="76.079"
       x2="523.48"
       y1="10.798"
       y2="365.945"
       gradientUnits="userSpaceOnUse"
       gradientTransform="translate(1.5073892,3.0147783)">
      <stop
         stop-color="#9013fe"
         id="stop2" />
      <stop
         offset="1"
         stop-color="#6610f2"
         id="stop4" />
    </linearGradient>
    <linearGradient
       id="bs-logo-b"
       x1="193.508"
       x2="293.514"
       y1="109.74"
       y2="278.872"
       gradientUnits="userSpaceOnUse"
       gradientTransform="translate(23.1133,11.55665)">
      <stop
         stop-color="#fff"
         id="stop7" />
      <stop
         offset="1"
         stop-color="#f1e5fc"
         id="stop9" />
    </linearGradient>
    <filter
       id="bs-logo-c"
       width="197"
       height="249"
       x="161.901"
       y="83.457"
       color-interpolation-filters="sRGB"
       filterUnits="userSpaceOnUse">
      <feFlood
         flood-opacity="0"
         result="BackgroundImageFix"
         id="feFlood12" />
      <feColorMatrix
         in="SourceAlpha"
         values="0 0 0 0 0 0 0 0 0 0 0 0 0 0 0 0 0 0 127 0"
         id="feColorMatrix14" />
      <feOffset
         dy="4"
         id="feOffset16" />
      <feGaussianBlur
         stdDeviation="8"
         id="feGaussianBlur18" />
      <feColorMatrix
         values="0 0 0 0 0 0 0 0 0 0 0 0 0 0 0 0 0 0 0.15 0"
         id="feColorMatrix20" />
      <feBlend
         in2="BackgroundImageFix"
         result="effect1_dropShadow"
         id="feBlend22" />
      <feBlend
         in="SourceGraphic"
         in2="effect1_dropShadow"
         result="shape"
         id="feBlend24" />
    </filter>
  </defs>
  <path
     fill="url(#bs-logo-a)"
     d="m 57.988389,56.334778 c -0.966,-27.74 20.647,-53.3199997 49.861001,-53.3199997 h 299.353 c 29.214,0 50.827,25.5799997 49.861,53.3199997 -0.928,26.647 0.277,61.165002 8.964,89.310002 8.715,28.232 23.411,46.077 47.48,48.37 v 26 c -24.069,2.293 -38.765,20.138 -47.48,48.37 -8.687,28.145 -9.892,62.663 -8.964,89.311 0.966,27.739 -20.647,53.319 -49.861,53.319 h -299.353 c -29.214001,0 -50.827001,-25.58 -49.860001,-53.319 0.927,-26.648 -0.278,-61.166 -8.966,-89.311 -8.714,-28.232 -23.446,-46.077 -47.5159998,-48.37 v -26 c 24.0689998,-2.293 38.8019998,-20.138 47.5159998,-48.37 8.688,-28.145 9.893,-62.663002 8.965,-89.310002 z"
     id="path29"
     style="fill:#0000ff" />
  <text
     xml:space="preserve"
     style="font-style:normal;font-weight:normal;font-size:133.333px;line-height:1.25;font-family:sans-serif;fill:#ffffff;fill-opacity:1;stroke:none"
     x="82.906403"
     y="250.72906"
     id="text2861"><tspan
       sodipodi:role="line"
       id="tspan2859"
       x="82.906403"
       y="250.72906">TPAM</tspan></text>
  <g
     sodipodi:type="inkscape:box3d"
     id="g31543"
     style="fill:#ffffff"
     inkscape:perspectiveID="#perspective31499"
     inkscape:corner0="-2.8731257 : 0.026588235 : 0 : 1"
     inkscape:corner7="-3.4613053 : 0.018531401 : 0.25 : 1">
    <path
       sodipodi:type="inkscape:box3dside"
       id="path31549"
       style="fill:#8686bf;fill-rule:evenodd;stroke:none;stroke-linejoin:round"
       inkscape:box3dsidetype="3"
       d="m -136.66995,181.89163 32.6601,5.28325 v -3.2734 l -32.6601,-6.31113 z"
       points="-104.00985,187.17488 -104.00985,183.90148 -136.66995,177.59035 -136.66995,181.89163 " />
    <path
       sodipodi:type="inkscape:box3dside"
       id="path31545"
       style="fill:#353564;fill-rule:evenodd;stroke:none;stroke-linejoin:round"
       inkscape:box3dsidetype="6"
       d="m -136.66995,181.89163 v -4.30128 l -99.91062,-4.06772 v 4.96378 z"
       points="-136.66995,177.59035 -236.58057,173.52263 -236.58057,178.48641 -136.66995,181.89163 " />
    <path
       sodipodi:type="inkscape:box3dside"
       id="path31547"
       style="fill:#4d4d9f;fill-rule:evenodd;stroke:none;stroke-linejoin:round"
       inkscape:box3dsidetype="5"
       d="m -136.66995,181.89163 32.6601,5.28325 -69.64324,-1.90217 -62.92748,-6.7863 z"
       points="-104.00985,187.17488 -173.65309,185.27271 -236.58057,178.48641 -136.66995,181.89163 " />
    <path
       sodipodi:type="inkscape:box3dside"
       id="path31555"
       style="fill:#e9e9ff;fill-rule:evenodd;stroke:none;stroke-linejoin:round"
       inkscape:box3dsidetype="11"
       d="m -236.58057,178.48641 62.92748,6.7863 v -3.64348 l -62.92748,-8.1066 z"
       points="-173.65309,185.27271 -173.65309,181.62923 -236.58057,173.52263 -236.58057,178.48641 " />
    <path
       sodipodi:type="inkscape:box3dside"
       id="path31551"
       style="fill:#d7d7ff;fill-rule:evenodd;stroke:none;stroke-linejoin:round"
       inkscape:box3dsidetype="14"
       d="m -104.00985,187.17488 v -3.2734 l -69.64324,-2.27225 v 3.64348 z"
       points="-104.00985,183.90148 -173.65309,181.62923 -173.65309,185.27271 -104.00985,187.17488 " />
    <path
       sodipodi:type="inkscape:box3dside"
       id="path31553"
       style="fill:#afafde;fill-rule:evenodd;stroke:none;stroke-linejoin:round"
       inkscape:box3dsidetype="13"
       d="m -136.66995,177.59035 32.6601,6.31113 -69.64324,-2.27225 -62.92748,-8.1066 z"
       points="-104.00985,183.90148 -173.65309,181.62923 -236.58057,173.52263 -136.66995,177.59035 " />
  </g>
</svg>
